# xmcd CD database file
#
# Track frame offsets:
#	180
#	14334
#	30962
#	48864
#	70884
#	91400
#	109752
#	126529
#	153238
#	177626
#
# Disc length: 2601 seconds
#
# Revision: 2
# Processed by: cddbd v1.5.2PL0 Copyright (c) Steve Scherf et al.
# Submitted via: CDex 1.70beta3
#
DISCID=7e0a270a
DTITLE=Wild Frontier - One Way To Heaven
DYEAR=1994
DGENRE=Melodic Hard Rock
TTITLE0=Bad Town's Side
TTITLE1=I Can't Believe
TTITLE2=What Do You Want
TTITLE3=I Want You
TTITLE4=One Way To Heaven
TTITLE5=No Time For Heroes
TTITLE6=Take Your Heart
TTITLE7=Key Of My Heart
TTITLE8=Standing On The Edge
TTITLE9=House Of Tears
EXTD=YEAR: 1994
EXTT0=
EXTT1=
EXTT2=
EXTT3=
EXTT4=
EXTT5=
EXTT6=
EXTT7=
EXTT8=
EXTT9=
PLAYORDER=
